<?xml version="1.0" encoding="utf-8"?>
<!-- Generator: Adobe Illustrator 24.0.0, SVG Export Plug-In . SVG Version: 6.00 Build 0)  -->
<svg version="1.1" id="peopleBtn" xmlns="http://www.w3.org/2000/svg" xmlns:xlink="http://www.w3.org/1999/xlink" x="0px" y="0px"
	 viewBox="0 0 71 67" style="enable-background:new 0 0 71 67;" xml:space="preserve">
<style type="text/css">
	.st0{fill:#FFFFF0;stroke:#FF6633;stroke-miterlimit:10;}
	.st1{fill:none;stroke:#FF6633;}
	.st2{fill:#FF6633;}
</style>
<g id="Ellipse_11" transform="translate(0 0)">
	<ellipse class="st0" cx="35.5" cy="33.5" rx="35.5" ry="33.5"/>
	<ellipse class="st1" cx="35.5" cy="33.5" rx="35" ry="33"/>
</g>
<path id="Icon_material-people" class="st2" d="M35.8,32.2c2.2,0,4-1.8,4-4s-1.8-4-4-4s-4,1.8-4,4S33.6,32.2,35.8,32.2L35.8,32.2z
	 M25.2,32.2c2.2,0,4-1.8,4-4s-1.8-4-4-4s-4,1.8-4,4C21.1,30.4,22.9,32.2,25.2,32.2C25.1,32.2,25.1,32.2,25.2,32.2z M25.2,34.8
	c-3.1,0-9.4,1.6-9.4,4.7v3.3h18.7v-3.3C34.5,36.3,28.3,34.8,25.2,34.8L25.2,34.8z M35.8,34.8c-0.4,0-0.8,0-1.3,0.1
	c1.6,1,2.6,2.7,2.6,4.6v3.3h8v-3.3C45.2,36.3,39,34.8,35.8,34.8L35.8,34.8z M45.9,32.2c2.2,0,4-1.8,4-4s-1.8-4-4-4s-4,1.8-4,4
	S43.7,32.2,45.9,32.2L45.9,32.2z M45.9,34.8c-0.4,0-0.8,0-1.3,0.1c1.6,1,2.6,2.7,2.6,4.6v3.3h8v-3.3C55.3,36.3,49.1,34.8,45.9,34.8
	L45.9,34.8z"/>
</svg>
