<svg id="Layer_1" data-name="Layer 1" xmlns="http://www.w3.org/2000/svg" viewBox="0 0 278.01 107.76"><defs><style>.cls-1{fill:#6cf;}.cls-2,.cls-3{fill:#f63;}.cls-3{font-size:26.68px;font-family:Garamond-Bold, Garamond;font-weight:700;}</style></defs><title>CCLOGO_2</title><ellipse class="cls-1" cx="48.98" cy="113.25" rx="6.39" ry="6.05" transform="translate(-70.19 52.59) rotate(-88.6)"/><path class="cls-1" d="M66.23,132.13c.37-.88-11.62-12.13-21.29-7.37-7.66,3.77-9.29,15.33-8.11,16s4-8.31,12.21-11.09C57.69,126.73,65.93,132.84,66.23,132.13Z" transform="translate(-4.75 -106.86)"/><path class="cls-1" d="M33,115c-.3.94,13.32,15,23,10.79,7.67-3.31,8.29-16.06,7-17s-3.45,8.83-11.74,11C42.48,122.05,33.27,114.22,33,115Z" transform="translate(-4.75 -106.86)"/><ellipse class="cls-2" cx="79.75" cy="132.23" rx="6.3" ry="6.13" transform="matrix(0.58, -0.81, 0.81, 0.58, -78.9, 12.73)"/><path class="cls-2" d="M73,157.17c.93-.13,4-16.49-5-22.48-7.13-4.74-17.61-.14-17.56,1.25s9-.8,15.6,4.9C73.07,146.88,72.27,157.27,73,157.17Z" transform="translate(-4.75 -106.86)"/><path class="cls-2" d="M70,119.17c-1,.22-5.53,19.46,3,25.75,6.75,5,17.69-1.11,17.76-2.72s-9.15,1.58-15.25-4.56C69,131.13,70.76,119,70,119.17Z" transform="translate(-4.75 -106.86)"/><ellipse class="cls-1" cx="79.16" cy="170.26" rx="6.12" ry="6.31" transform="translate(-84.73 -36.24) rotate(-33.01)"/><path class="cls-1" d="M54.56,176c.55.78,16.08-4.15,17-15.11.69-8.69-8.22-16-9.39-15.27s5,7.78,3.18,16.41C63.42,171.17,54.11,175.37,54.56,176Z" transform="translate(-4.75 -106.86)"/><path class="cls-1" d="M85.77,155.27c-.64-.75-19.34,4.22-20.71,14.9-1.08,8.46,9.34,15.46,10.76,14.75s-5.69-7.51-3.31-15.92C75,160.07,86.28,155.87,85.77,155.27Z" transform="translate(-4.75 -106.86)"/><ellipse class="cls-2" cx="47.59" cy="187.24" rx="6.05" ry="6.39" transform="translate(-5.16 -106.75) rotate(-0.13)"/><path class="cls-2" d="M29.46,169.24c-.33.9,12.18,11.55,21.61,6.31,7.48-4.15,8.56-15.78,7.35-16.4s-3.65,8.51-11.67,11.69C38.25,174.21,29.73,168.52,29.46,169.24Z" transform="translate(-4.75 -106.86)"/><path class="cls-2" d="M63.44,184.72c.26-.95-14-14.29-23.49-9.63-7.5,3.68-7.52,16.46-6.17,17.29s3-9,11.21-11.54C53.66,178.13,63.23,185.49,63.44,184.72Z" transform="translate(-4.75 -106.86)"/><ellipse class="cls-1" cx="15.36" cy="167.28" rx="6.3" ry="6.14" transform="translate(-131.5 -29.15) rotate(-52.53)"/><path class="cls-1" d="M23.06,142.64c-.93.1-4.69,16.31,4.07,22.66,6.93,5,17.58.88,17.58-.51s-9.05.42-15.38-5.54C22.61,152.92,23.81,142.57,23.06,142.64Z" transform="translate(-4.75 -106.86)"/><path class="cls-1" d="M24.58,180.74c1-.19,6.29-19.22-2-25.86-6.55-5.27-17.72.38-17.85,2s9.2-1.2,15.05,5.19C26,168.83,23.82,180.88,24.58,180.74Z" transform="translate(-4.75 -106.86)"/><ellipse class="cls-2" cx="17.56" cy="127.56" rx="6.11" ry="6.33" transform="translate(-63.82 -82.78) rotate(-28.68)"/><path class="cls-2" d="M42.65,124.82c-.46-.84-16.45,2.19-18.57,13-1.68,8.54,6.33,16.85,7.57,16.29s-4-8.32-1.27-16.67C33.3,128.55,43,125.49,42.65,124.82Z" transform="translate(-4.75 -106.86)"/><path class="cls-2" d="M9.29,141.65c.55.82,19.68-1.87,22.26-12.32,2.05-8.27-7.51-16.46-9-15.94s4.79,8.15,1.46,16.22C20.49,138.17,8.85,141,9.29,141.65Z" transform="translate(-4.75 -106.86)"/><text class="cls-3" transform="translate(88.01 56.11) scale(0.82 1)">Charity Connections</text><text x="-4.75" y="-106.86"/><text x="-4.75" y="-106.86"/></svg>