<svg id="Layer_1" data-name="Layer 1" xmlns="http://www.w3.org/2000/svg" viewBox="0 0 283 93"><defs><style>.cls-1{fill:#6cf;}.cls-2,.cls-3{fill:#f63;}.cls-3{font-size:26.68px;font-family:GaramondFBText-Bold, GaramondFBText;font-weight:700;}.cls-4{letter-spacing:0.01em;}.cls-5{letter-spacing:0em;}</style></defs><title>Artboard 1</title><ellipse class="cls-1" cx="48.98" cy="9.25" rx="6.39" ry="6.05" transform="translate(38.53 57.99) rotate(-88.6)"/><path class="cls-1" d="M66.23,28.13c.37-.88-11.62-12.13-21.29-7.37-7.66,3.77-9.29,15.33-8.11,16s4-8.31,12.21-11.09C57.69,22.73,65.93,28.84,66.23,28.13Z"/><path class="cls-1" d="M33,11c-.3.94,13.32,15,23,10.79,7.67-3.31,8.29-16.06,7-17s-3.45,8.83-11.74,11C42.48,18.05,33.27,10.22,33,11Z"/><ellipse class="cls-2" cx="79.75" cy="28.23" rx="6.3" ry="6.13" transform="matrix(0.58, -0.81, 0.81, 0.58, 10.21, 76.41)"/><path class="cls-2" d="M73,53.17c.93-.13,4-16.49-5-22.48-7.13-4.74-17.61-.14-17.56,1.25s9-.8,15.6,4.9C73.07,42.88,72.27,53.27,73,53.17Z"/><path class="cls-2" d="M70,15.17c-1,.22-5.53,19.46,3,25.75,6.75,5,17.69-1.11,17.76-2.72s-9.15,1.58-15.25-4.56C69,27.13,70.76,15,70,15.17Z"/><ellipse class="cls-1" cx="79.16" cy="66.26" rx="6.12" ry="6.31" transform="translate(-23.32 53.83) rotate(-33.01)"/><path class="cls-1" d="M54.56,72c.55.78,16.08-4.15,17-15.11.69-8.69-8.22-16-9.39-15.27s5,7.78,3.18,16.41C63.42,67.17,54.11,71.37,54.56,72Z"/><path class="cls-1" d="M85.77,51.27c-.64-.75-19.34,4.22-20.71,14.9C64,74.63,74.4,81.63,75.82,80.92S70.13,73.41,72.51,65C75,56.07,86.28,51.87,85.77,51.27Z"/><ellipse class="cls-2" cx="47.59" cy="83.24" rx="6.05" ry="6.39" transform="translate(-0.18 0.1) rotate(-0.13)"/><path class="cls-2" d="M29.46,65.24c-.33.9,12.18,11.55,21.61,6.31,7.48-4.15,8.56-15.78,7.35-16.4s-3.65,8.51-11.67,11.69C38.25,70.21,29.73,64.52,29.46,65.24Z"/><path class="cls-2" d="M63.44,80.72c.26-1-14-14.29-23.49-9.63-7.5,3.68-7.52,16.46-6.17,17.29s3-9,11.21-11.54C53.66,74.13,63.23,81.49,63.44,80.72Z"/><ellipse class="cls-1" cx="15.36" cy="63.28" rx="6.3" ry="6.14" transform="translate(-44.21 36.97) rotate(-52.53)"/><path class="cls-1" d="M23.06,38.64c-.93.1-4.69,16.31,4.07,22.66,6.93,5,17.58.88,17.58-.51s-9.05.42-15.38-5.54C22.61,48.92,23.81,38.57,23.06,38.64Z"/><path class="cls-1" d="M24.58,76.74c1-.19,6.29-19.22-2-25.86-6.55-5.27-17.72.38-17.85,2s9.2-1.2,15.05,5.19C26,64.83,23.82,76.88,24.58,76.74Z"/><ellipse class="cls-2" cx="17.56" cy="23.56" rx="6.11" ry="6.33" transform="translate(-9.15 11.32) rotate(-28.68)"/><path class="cls-2" d="M42.65,20.82C42.19,20,26.2,23,24.08,33.79c-1.68,8.54,6.33,16.85,7.57,16.29s-4-8.32-1.27-16.67C33.3,24.55,43,21.49,42.65,20.82Z"/><path class="cls-2" d="M9.29,37.65c.55.82,19.68-1.87,22.26-12.32,2.05-8.27-7.51-16.46-9-15.94S27.35,17.54,24,25.61C20.49,34.17,8.85,37,9.29,37.65Z"/><text class="cls-3" transform="translate(92.76 58.97) scale(0.82 1)">Chari<tspan class="cls-4" x="68.4" y="0">t</tspan><tspan x="75.4" y="0">y Conn</tspan><tspan class="cls-5" x="155.43" y="0">e</tspan><tspan x="168.27" y="0">ctions</tspan></text></svg>