<?xml version="1.0" encoding="utf-8"?>
<!-- Generator: Adobe Illustrator 23.1.0, SVG Export Plug-In . SVG Version: 6.00 Build 0)  -->
<svg version="1.1" id="peopleBtn" xmlns="http://www.w3.org/2000/svg" xmlns:xlink="http://www.w3.org/1999/xlink" x="0px" y="0px"
	 viewBox="0 0 71 67" style="enable-background:new 0 0 71 67;" xml:space="preserve">
<style type="text/css">
	.st0{fill:#FFFFFF;stroke:#FF6633;stroke-miterlimit:10;}
	.st1{fill:none;stroke:#FF6633;}
	.st2{fill:#FF6633;}
</style>
<g id="Ellipse_11" transform="translate(0 0)">
	<ellipse class="st0" cx="35.5" cy="33.5" rx="35.5" ry="33.5"/>
	<ellipse class="st1" cx="35.5" cy="33.5" rx="35" ry="33"/>
</g>
<path id="Icon_material-people" class="st2" d="M40.8,32.5c2.2,0,4-1.8,4-4s-1.8-4-4-4s-4,1.8-4,4C36.8,30.7,38.6,32.5,40.8,32.5
	C40.8,32.5,40.8,32.5,40.8,32.5z M30.2,32.5c2.2,0,4-1.8,4-4s-1.8-4-4-4s-4,1.8-4,4C26.1,30.7,27.9,32.5,30.2,32.5
	C30.1,32.5,30.1,32.5,30.2,32.5z M30.2,35.2c-3.1,0-9.4,1.6-9.4,4.7v3.3h18.7v-3.3C39.5,36.7,33.3,35.2,30.2,35.2L30.2,35.2z
	 M40.8,35.2c-0.4,0-0.8,0-1.3,0.1c1.6,1,2.6,2.7,2.6,4.6v3.3h8v-3.3C50.2,36.7,44,35.2,40.8,35.2L40.8,35.2z"/>
</svg>
