<svg id="Layer_1" data-name="Layer 1" xmlns="http://www.w3.org/2000/svg" viewBox="0 0 345.84 257.5"><defs><style>.cls-1{fill:#3fa9f5;}.cls-2{fill:#f63;}.cls-11,.cls-3{font-size:26px;letter-spacing:0.1em;}.cls-3{fill:#fff;font-family:Garamond-Bold, Garamond;font-weight:700;}.cls-10,.cls-14,.cls-4,.cls-5,.cls-6,.cls-7,.cls-8,.cls-9{font-size:15px;}.cls-4{letter-spacing:0.1em;}.cls-5{letter-spacing:0.07em;}.cls-6{letter-spacing:0.08em;}.cls-7{letter-spacing:0.07em;}.cls-13,.cls-8{letter-spacing:0.1em;}.cls-9{letter-spacing:0.05em;}.cls-10{letter-spacing:0.1em;}.cls-12{letter-spacing:0.11em;}.cls-14{letter-spacing:0.11em;}</style></defs><title>Tagline_CC</title><path class="cls-1" d="M418.92,304.4c-83.84-60.8-262-60.8-345.84,0,83.84-60.8,83.84-190,0-250.8,83.84,60.8,262,60.8,345.84,0C335.08,114.4,335.08,243.6,418.92,304.4Z" transform="translate(-73.08 -46.9)"/><path class="cls-2" d="M415.5,255.7c-55-27.4-235,2.2-270,44.4,35-42.2-5-174.2-60-198,55,23.8,229.4-13,261.6-55.2C314.9,89.1,360.5,228.3,415.5,255.7Z" transform="translate(-73.08 -46.9)"/><text class="cls-3" transform="translate(69.98 95.1)">H<tspan class="cls-4" x="24.98" y="0">elping </tspan><tspan x="78.65" y="0">v</tspan><tspan class="cls-5" x="93.07" y="0">oluntee</tspan><tspan class="cls-6" x="146.93" y="0">r</tspan><tspan class="cls-7" x="153.32" y="0">s</tspan><tspan class="cls-8" x="160.54" y="0"> </tspan><tspan class="cls-9" x="165.73" y="0">and</tspan><tspan class="cls-10" x="191.69" y="0" xml:space="preserve">      </tspan><tspan x="-1.62" y="31.2">c</tspan><tspan class="cls-4" x="13.07" y="31.2">harities to</tspan><tspan class="cls-4"><tspan x="27.35" y="62.4" xml:space="preserve">     </tspan><tspan class="cls-11" x="53.3" y="62.4">c</tspan><tspan x="67.98" y="62.4">onnect and </tspan><tspan class="cls-11" x="158.21" y="62.4">c</tspan><tspan class="cls-12" x="172.89" y="62.4">r</tspan><tspan class="cls-13" x="179.64" y="62.4">eate </tspan></tspan><tspan x="24.18" y="93.6">s</tspan><tspan class="cls-4" x="37.5" y="93.6">t</tspan><tspan class="cls-14" x="43.63" y="93.6">r</tspan><tspan class="cls-4" x="50.37" y="93.6" xml:space="preserve">onger  </tspan><tspan x="104.36" y="93.6">c</tspan><tspan class="cls-4" x="119.05" y="93.6">ommunities</tspan></text><text x="-73.08" y="-46.9"/></svg>